# xmcd CD database file
#
# Track frame offsets:
#	150
#	11960
#	23377
#	33142
#	44717
#	54877
#	65982
#	76322
#	86905
#	97310
#	106872
#	116192
#	126930
#	135497
#	143795
#	152410
#	161482
#	169820
#	179145
#	188730
#	196130
#	207595
#	221077
#	237635
#	248895
#	262015
#	273992
#	285635
#	296712
#
# Disc length: 4123 seconds
#
# Revision: 2
# Processed by: cddbd v1.5.2PL0 Copyright (c) Steve Scherf et al.
# Submitted via: CDex 1.70beta2
#
DISCID=bf10191d
DTITLE=Collins Kids - Hop, Skip and Jump [CD1)
DYEAR=1900
DGENRE=Rockabilly
TTITLE0=Go Away Don't Bother Me
TTITLE1=Rock and Roll Polka
TTITLE2=Move a Little Closer
TTITLE3=My First Love
TTITLE4=Hush Money
TTITLE5=I Wish
TTITLE6=The Cuckoo Rock
TTITLE7=Beetle-Bug-Bop
TTITLE8=I'm in My Teens
TTITLE9=The Rockaway Rock
TTITLE10=They're Still in Love
TTITLE11=Make Him Behave
TTITLE12=Hop, Skip and Jump
TTITLE13=Shortnin' Bread Rock
TTITLE14=Just Because
TTITLE15=Hoy Hoy
TTITLE16=Hot Rod
TTITLE17=Heartbeat
TTITLE18=Mama Worries
TTITLE19=Party
TTITLE20=Walkin' the Floor Over You
TTITLE21=Missouri Waltz
TTITLE22=You are My Sunshine (& Gene Autry, Carl Smith, Don Cherry and Rosemary Clooney)
TTITLE23=Soda Poppin' Around
TTITLE24=Young Heart
TTITLE25=Ain't You Ever
TTITLE26=What'cha Gonna Do Now
TTITLE27=Waitin' and Watchin'
TTITLE28=Home of the Blues
EXTD=
EXTT0=
EXTT1=
EXTT2=
EXTT3=
EXTT4=
EXTT5=
EXTT6=
EXTT7=
EXTT8=
EXTT9=
EXTT10=
EXTT11=
EXTT12=
EXTT13=
EXTT14=
EXTT15=
EXTT16=
EXTT17=
EXTT18=
EXTT19=
EXTT20=
EXTT21=
EXTT22=
EXTT23=
EXTT24=
EXTT25=
EXTT26=
EXTT27=
EXTT28=
PLAYORDER=
